<?xml version="1.0" encoding="utf-8"?>
<svg viewBox="0 0 140 40" style="overflow: visible;" xmlns="http://www.w3.org/2000/svg">
  <defs>
    <linearGradient x1="82.11%" y1="88.26%" x2="17.89%" y2="11.74%" id="o-6fbf3ebb0fa34e61b653ac9c4e13cd7b" gradientUnits="objectBoundingBox" data-uid="o-6fb6082495eb4495885d03c07de9d254">
      <stop offset="0" stop-color="rgb(100, 144, 250)" stop-opacity="1" data-uid="o-aafc026fb34c412299564e3e63415986"/>
      <stop offset="1" stop-color="rgb(100, 144, 250)" stop-opacity="0.00" data-uid="o-60881e3da6eb4bc4a26cb01e0e142078"/>
    </linearGradient>
    <linearGradient x1="82.11%" y1="88.26%" x2="17.89%" y2="11.74%" id="o-be76e204cf344254934f2e4b8f65a227" gradientUnits="objectBoundingBox" data-uid="o-ffa3385f1d504c0e84fe3f9bf4173f57">
      <stop offset="0" stop-color="rgb(100, 144, 250)" stop-opacity="0.00" data-uid="o-c65b45d4951b4e30a4827fdc20e9931d"/>
      <stop offset="1" stop-color="rgb(100, 144, 250)" stop-opacity="1.00" data-uid="o-5c2e8638eeeb4b68b79d31eed1b2643f"/>
    </linearGradient>
    <linearGradient x1="11.74%" y1="82.11%" x2="88.26%" y2="17.89%" id="o-2d3b73038d0e4824b5975d978ec945bc" gradientUnits="objectBoundingBox" data-uid="o-a933190efd7548f08edb23ecf1c24f06">
      <stop offset="0" stop-color="rgb(100, 144, 250)" stop-opacity="1" data-uid="o-d8a307ab66a7470b9aa2e3da18301f00"/>
      <stop offset="1" stop-color="rgb(100, 144, 250)" stop-opacity="0.00" data-uid="o-343ccf4a02bf4eef868271a0097f18f4"/>
    </linearGradient>
    <linearGradient x1="11.74%" y1="82.11%" x2="88.26%" y2="17.89%" id="o-68ebe5883b2b41fcbe17da9d83db8021" gradientUnits="objectBoundingBox" data-uid="o-a659a3f7dcfe4b798d13f229dba28429">
      <stop offset="0" stop-color="rgb(100, 144, 250)" stop-opacity="0.00" data-uid="o-c7ad3a8409cb449f8e2f8574d4191665"/>
      <stop offset="1" stop-color="rgb(100, 144, 250)" stop-opacity="1" data-uid="o-fd143b5096384391ad492a986a556242"/>
    </linearGradient>
  </defs>
  <g transform="matrix(0.40519797801971436, 0, 0, 0.44815197587013245, -55.406773439150655, -80.15065121875182)" data-uid="o-47ef074421a440f595a75c9c06091732">
    <g transform="matrix(0.7973237633705139, 0, 0, 0.7973237633705139, -23.74547576904297, 98.35025787353516)" fill="#1b60ca" data-uid="o-f2e953984696496789fe06d492bba9bc">
      <path d="M1851.1 1569.6L1851.1 1569.6l1110.8-11.6c23.2-6.9 41.2-25.4 47.4-48.8c6.3-23.4 0-48.4-16.6-66l-633.9-633.9&#10;&#9;&#9;c-103.8-89.9-249.6-113.5-376.5-60.9c-126.9 52.6-213.1 172.5-222.7 309.6l-5.1 414.8C1760.9 1523.3 1800.7 1563.2 1851.1 1569.6z" transform="matrix(0.04375240579247475, 0, 0, 0.04375240579247475, 169.74899291992188, 69.42437744140625)" fill="#1b60ca" data-uid="o-b740d9ca1c714ee7ba37d8baac33d547"/>
      <path d="M990.4 2490.7c-6.3 23.5 0 48.5 16.7 66.1l634 633.9c103.8 90 249.6 113.6 376.5 60.9c126.9-52.7 213.2-172.6 222.8-309.6&#10;&#9;&#9;l5-414.8c-6.4-50.6-46.3-90.3-96.8-96.8l-1110.7 11.5C1014.6 2448.8 996.6 2467.3 990.4 2490.7z" transform="matrix(0.04375240579247475, 0, 0, 0.04375240579247475, 169.74899291992188, 69.42437744140625)" fill="#1b60ca" data-uid="o-d79c1f20df2b430f9c57c5ea7b19563e"/>
      <path d="M2490.8 3009.3c23.4 6.3 48.4 0 66-16.6l633.9-633.9c89.9-103.8 113.5-249.6 60.9-376.5s-172.5-213.1-309.6-222.7&#10;&#9;&#9;l-414.8-5.1c-50.6 6.5-90.4 46.3-96.8 96.6l11.6 1110.8C2448.9 2985.1 2467.4 3003.1 2490.8 3009.3z" transform="matrix(0.04375240579247475, 0, 0, 0.04375240579247475, 169.74899291992188, 69.42437744140625)" fill="#1b60ca" data-uid="o-ffe60a2f0b2542e8a9a5fbf243e46f74"/>
      <path d="M1509.3 990.4c-23.5-6.3-48.5 0-66.1 16.7L809.3 1641c-90 103.8-113.6 249.6-60.9 376.5&#10;&#9;&#9;c52.7 126.9 172.6 213.2 309.6 222.8l414.8 5.1c50.5-6.4 90.3-46.2 96.8-96.8l-11.5-1110.7&#10;&#9;&#9;C1551.2 1014.6 1532.7 996.6 1509.3 990.4z" transform="matrix(0.04375240579247475, 0, 0, 0.04375240579247475, 169.74899291992188, 69.42437744140625)" fill="#1b60ca" data-uid="o-7f29729abc54490198789cfdc16497b2"/>
    </g>
    <g transform="matrix(0.7973237633705139, 0, 0, 0.7973237633705139, -23.74547576904297, 98.35025787353516)" fill="url(#o-c4096f6f849c40fd883e065b91168a0c)" data-uid="o-006bb82810954078af9b85dab0ec4a79">
      <path class="st0" d="M3009.5 1505.4c1.5-5.4 2.2-10.9 2.4-16.3c-0.5-16.9-7.1-33.2-19-45.8L2359 809.4&#10;&#9;&#9;c-103.9-90-249.7-113.5-376.5-60.9c-126.4 52.5-212.5 171.7-222.6 308.2c1.5-0.7 3-1.3 4.6-2c126.9-52.6 272.7-29 376.5 60.9&#10;&#9;&#9;l442.7 442.7l378.5-3.9C2985.3 1547.3 3003.2 1528.8 3009.5 1505.4z" fill-rule="evenodd" clip-rule="evenodd" fill="url(#o-6fbf3ebb0fa34e61b653ac9c4e13cd7b)" transform="matrix(0.04375240579247475, 0, 0, 0.04375240579247475, 169.74899291992188, 69.42437744140625)" data-uid="o-20d8acb9345c4da39eb63c08b42b7826"/>
      <path class="st0" d="M989.6 2523.8c0.1 0.2 0.1 0.5 0.2 0.7c0.1 0.5 0.2 0.9 0.3 1.4c0.1 0.6 0.3 1.1 0.5 1.7&#10;&#9;&#9;c0 0.1 0.1 0.3 0.1 0.4c2.2 7.7 5.7 15 10.5 21.6l0.1 0.1c0.3 0.4 0.6 0.8 0.9 1.2c0.2 0.2 0.3 0.4 0.5 0.6&#10;&#9;&#9;c0.2 0.2 0.4 0.5 0.6 0.7c0.3 0.4 0.6 0.7 0.9 1.1c0.1 0.1 0.1 0.1 0.2 0.2c0.9 1.1 1.9 2.2 2.9 3.2l480.3 480.3l153.6 153.6&#10;&#9;&#9;c103.9 90 249.7 113.5 376.5 60.9c5.9-2.5 11.8-5.1 17.6-7.8c0.4-0.2 0.8-0.4 1.2-0.6c1.5-0.7 3-1.4 4.5-2.2&#10;&#9;&#9;c0.8-0.4 1.6-0.8 2.4-1.2c1.1-0.6 2.2-1.1 3.3-1.7c1.2-0.6 2.4-1.3 3.6-1.9c0.7-0.4 1.3-0.7 2-1.1c1.6-0.9 3.2-1.8 4.8-2.7&#10;&#9;&#9;c0.2-0.1 0.4-0.2 0.7-0.4c104.4-59.2 173.6-167.1 182.6-288.6c-1.5 0.7-3 1.3-4.6 2c-126.9 52.6-272.7 29-376.5-60.9L1412.6 2438&#10;&#9;&#9;l-374.7 3.9c-23.3 6.9-41.2 25.5-47.5 48.8C987.4 2501.7 987.3 2513 989.6 2523.8z" fill-rule="evenodd" clip-rule="evenodd" fill="url(#o-be76e204cf344254934f2e4b8f65a227)" transform="matrix(0.04375240579247475, 0, 0, 0.04375240579247475, 169.74899291992188, 69.42437744140625)" data-uid="o-55d38a9a51e440f9b54ac7ba7bce58fc"/>
      <path class="st0" d="M3243.8 1962.2c-0.1-0.2-0.2-0.3-0.2-0.5c-0.8-1.7-1.7-3.5-2.6-5.2c-0.2-0.4-0.4-0.7-0.5-1.1&#10;&#9;&#9;c-0.8-1.5-1.6-3.1-2.4-4.6c-0.3-0.6-0.6-1.2-1-1.8c-0.7-1.3-1.3-2.5-2-3.8c-0.5-0.8-0.9-1.7-1.4-2.5c-0.6-1-1.1-2-1.7-3&#10;&#9;&#9;c-0.6-1.1-1.2-2.1-1.8-3.2c-0.4-0.8-0.9-1.5-1.3-2.3c-0.7-1.3-1.5-2.5-2.3-3.8c-0.3-0.5-0.7-1.1-1-1.6c-0.9-1.5-1.8-2.9-2.7-4.4&#10;&#9;&#9;c-0.2-0.3-0.4-0.6-0.6-0.9c-1.1-1.7-2.1-3.3-3.2-4.9c-0.1-0.1-0.1-0.2-0.2-0.3c-61.2-92.3-162.4-152.8-275.4-161.2&#10;&#9;&#9;c0.7 1.5 1.3 3 2 4.6c52.6 126.9 29 272.7-60.9 376.5l-446.4 446.4l3.9 374.7c6.9 23.2 25.4 41.2 48.8 47.4&#10;&#9;&#9;c23.4 6.3 48.4 0 66-16.6l633.9-633.9c90-103.9 113.5-249.7 60.9-376.5C3249.1 1973.9 3246.5 1968 3243.8 1962.2z" fill-rule="evenodd" clip-rule="evenodd" fill="url(#o-2d3b73038d0e4824b5975d978ec945bc)" transform="matrix(0.04375240579247475, 0, 0, 0.04375240579247475, 169.74899291992188, 69.42437744140625)" data-uid="o-bf726b83d545444cbb4051ecdadbf09a"/>
      <path class="st0" d="M748.4 2017.5c0.8 2 1.7 4 2.5 5.9c0.1 0.1 0.1 0.3 0.2 0.4c0.8 1.8 1.6 3.6 2.4 5.5c0.2 0.4 0.4 0.9 0.6 1.3&#10;&#9;&#9;c0.7 1.5 1.4 3 2.1 4.5c0.5 1 0.9 1.9 1.4 2.9c0.5 0.9 0.9 1.9 1.4 2.8c0.7 1.3 1.4 2.7 2.1 4c0.3 0.5 0.6 1.1 0.8 1.6&#10;&#9;&#9;c0.9 1.8 1.9 3.6 2.8 5.3c0 0.1 0.1 0.2 0.1 0.2c58.5 107.4 168 179 291.7 188.1c-0.7-1.5-1.3-3-2-4.6&#10;&#9;&#9;c-52.6-126.9-29-272.7 60.9-376.5l446.4-446.4l-3.9-374.7c-6.9-23.3-25.5-41.2-48.8-47.5c-10.2-2.8-20.8-3.1-30.9-1.2&#10;&#9;&#9;c0 0 0 0-0.1 0c-0.7 0.1-1.4 0.3-2.1 0.4c-0.4 0.1-0.8 0.2-1.2 0.3c-0.3 0.1-0.6 0.1-0.9 0.2c-9.2 2.3-17.9 6.5-25.6 12.5&#10;&#9;&#9;c0 0 0 0-0.1 0.1c-0.4 0.3-0.8 0.6-1.2 1c-0.2 0.2-0.4 0.3-0.6 0.5s-0.5 0.4-0.7 0.6c-0.4 0.3-0.7 0.6-1 0.9&#10;&#9;&#9;c-0.1 0.1-0.1 0.1-0.2 0.2c-0.5 0.5-1 0.9-1.5 1.4l-186.4 186.4L809.3 1641C719.3 1744.9 695.8 1890.7 748.4 2017.5z" fill-rule="evenodd" clip-rule="evenodd" fill="url(#o-68ebe5883b2b41fcbe17da9d83db8021)" transform="matrix(0.04375240579247475, 0, 0, 0.04375240579247475, 169.74899291992188, 69.42437744140625)" data-uid="o-fd31c95b6897414eaf9f5d53469b7f14"/>
    </g>
  </g>
  <path text="MoDash" fill="rgba(59, 130, 246, 1)" space="preserve" text-anchor="start" offset="0" font-scale="contain" font-size="48" font-family="Audiowide" font-style="normal" font-weight="400" letter-spacing="0" data-fl-textpath="" data-uid="o-739bac60cfb74e61b5d5a26fd14455de" d="M 62.15 14.21 L 62.15 30.229 L 59.282 30.229 L 59.282 19.888 L 54.235 29.708 C 54.111 29.959 53.938 30.148 53.715 30.278 C 53.493 30.407 53.254 30.471 52.998 30.471 C 52.75 30.471 52.518 30.407 52.302 30.278 C 52.087 30.148 51.918 29.959 51.793 29.708 L 46.725 19.888 L 46.725 30.229 L 43.878 30.229 L 43.878 14.21 C 43.878 13.846 43.975 13.523 44.168 13.241 C 44.362 12.958 44.615 12.769 44.929 12.672 C 45.083 12.631 45.236 12.617 45.389 12.629 C 45.542 12.642 45.69 12.678 45.833 12.738 C 45.975 12.799 46.105 12.884 46.221 12.993 C 46.338 13.102 46.437 13.233 46.517 13.386 L 52.998 25.846 L 59.479 13.386 C 59.647 13.079 59.879 12.862 60.174 12.733 C 60.47 12.603 60.778 12.583 61.099 12.672 C 61.406 12.769 61.658 12.958 61.854 13.241 C 62.052 13.523 62.15 13.846 62.15 14.21 Z M 77.937 21.547 L 77.937 25.809 C 77.937 26.35 77.875 26.837 77.751 27.268 C 77.627 27.7 77.463 28.08 77.258 28.407 C 77.054 28.734 76.817 29.012 76.547 29.242 C 76.277 29.472 75.994 29.66 75.698 29.805 C 75.403 29.951 75.103 30.058 74.8 30.126 C 74.498 30.195 74.211 30.229 73.941 30.229 L 68.807 30.229 C 68.413 30.229 67.982 30.152 67.515 29.999 C 67.048 29.845 66.615 29.593 66.217 29.242 C 65.819 28.891 65.487 28.435 65.221 27.874 C 64.955 27.313 64.822 26.625 64.822 25.809 L 64.822 21.547 C 64.822 20.74 64.955 20.056 65.221 19.495 C 65.487 18.934 65.819 18.478 66.217 18.126 C 66.615 17.775 67.048 17.523 67.515 17.37 C 67.982 17.216 68.413 17.14 68.807 17.14 L 73.941 17.14 C 74.671 17.14 75.291 17.285 75.802 17.576 C 76.313 17.867 76.725 18.232 77.039 18.672 C 77.353 19.111 77.581 19.59 77.724 20.106 C 77.866 20.623 77.937 21.103 77.937 21.547 Z M 75.091 25.809 L 75.091 21.571 C 75.091 21.136 74.992 20.813 74.795 20.603 C 74.598 20.393 74.313 20.288 73.941 20.288 L 68.829 20.288 C 68.449 20.288 68.16 20.395 67.964 20.609 C 67.766 20.823 67.668 21.136 67.668 21.547 L 67.668 25.809 C 67.668 26.221 67.766 26.536 67.964 26.753 C 68.16 26.971 68.449 27.081 68.829 27.081 L 73.941 27.081 C 74.328 27.081 74.616 26.971 74.806 26.753 C 74.996 26.536 75.091 26.221 75.091 25.809 Z M 96.341 20.13 L 96.341 22.964 C 96.341 24.021 96.174 24.994 95.842 25.882 C 95.51 26.77 95.052 27.535 94.468 28.176 C 93.885 28.818 93.191 29.321 92.388 29.684 C 91.586 30.047 90.713 30.229 89.772 30.229 L 82.086 30.229 C 81.882 30.229 81.692 30.189 81.517 30.108 C 81.342 30.027 81.191 29.916 81.063 29.775 C 80.935 29.634 80.834 29.466 80.762 29.272 C 80.689 29.079 80.652 28.869 80.652 28.643 L 80.652 14.452 C 80.652 14.234 80.689 14.028 80.762 13.834 C 80.834 13.641 80.935 13.471 81.063 13.325 C 81.191 13.18 81.342 13.067 81.517 12.987 C 81.692 12.906 81.882 12.866 82.086 12.866 L 89.772 12.866 C 90.713 12.866 91.586 13.047 92.388 13.41 C 93.191 13.773 93.885 14.276 94.468 14.918 C 95.052 15.56 95.51 16.327 95.842 17.218 C 96.174 18.11 96.341 19.081 96.341 20.13 Z M 93.494 22.964 L 93.494 20.13 C 93.494 19.517 93.405 18.956 93.226 18.448 C 93.047 17.939 92.793 17.505 92.465 17.146 C 92.137 16.787 91.744 16.508 91.288 16.311 C 90.832 16.112 90.326 16.013 89.772 16.013 L 83.498 16.013 L 83.498 27.081 L 89.772 27.081 C 90.326 27.081 90.832 26.982 91.288 26.784 C 91.744 26.587 92.137 26.308 92.465 25.949 C 92.793 25.59 93.047 25.158 93.226 24.653 C 93.405 24.148 93.494 23.585 93.494 22.964 Z M 110.977 21.475 L 110.977 25.894 C 110.977 26.33 110.908 26.8 110.77 27.305 C 110.631 27.809 110.407 28.278 110.096 28.71 C 109.786 29.141 109.381 29.502 108.881 29.793 C 108.381 30.084 107.774 30.229 107.058 30.229 L 101.924 30.229 C 101.529 30.229 101.104 30.152 100.648 29.999 C 100.192 29.845 99.769 29.597 99.378 29.254 C 98.988 28.911 98.661 28.463 98.399 27.91 C 98.136 27.357 98.004 26.685 98.004 25.894 C 98.004 25.458 98.073 24.986 98.212 24.477 C 98.351 23.969 98.576 23.499 98.886 23.067 C 99.196 22.635 99.601 22.274 100.101 21.983 C 100.601 21.693 101.208 21.547 101.924 21.547 L 107.058 21.547 L 107.058 24.55 L 101.924 24.55 C 101.537 24.55 101.237 24.682 101.026 24.944 C 100.815 25.206 100.708 25.531 100.708 25.918 C 100.708 26.33 100.831 26.651 101.075 26.881 C 101.319 27.111 101.61 27.226 101.946 27.226 L 107.058 27.226 C 107.445 27.226 107.744 27.097 107.956 26.838 C 108.168 26.58 108.273 26.257 108.273 25.87 L 108.273 21.475 C 108.273 21.063 108.158 20.736 107.929 20.494 C 107.699 20.252 107.409 20.13 107.058 20.13 L 100.807 20.13 L 100.807 17.14 L 107.058 17.14 C 107.452 17.14 107.877 17.216 108.333 17.37 C 108.79 17.523 109.213 17.772 109.603 18.114 C 109.994 18.458 110.321 18.906 110.584 19.458 C 110.846 20.012 110.977 20.684 110.977 21.475 Z M 124.849 25.809 C 124.849 26.35 124.787 26.837 124.662 27.268 C 124.538 27.7 124.374 28.08 124.17 28.407 C 123.965 28.734 123.728 29.012 123.458 29.242 C 123.188 29.472 122.905 29.66 122.61 29.805 C 122.314 29.951 122.015 30.058 121.712 30.126 C 121.409 30.195 121.123 30.229 120.853 30.229 L 113.145 30.229 L 113.145 27.081 L 120.831 27.081 C 121.217 27.081 121.509 26.971 121.706 26.753 C 121.903 26.536 122.002 26.221 122.002 25.809 C 121.966 24.97 121.582 24.55 120.853 24.55 L 116.44 24.55 C 115.813 24.55 115.28 24.429 114.842 24.187 C 114.405 23.945 114.049 23.642 113.775 23.279 C 113.501 22.915 113.304 22.524 113.183 22.104 C 113.063 21.684 113.003 21.293 113.003 20.93 C 113.003 20.227 113.116 19.636 113.342 19.156 C 113.569 18.676 113.853 18.286 114.196 17.988 C 114.54 17.688 114.912 17.473 115.313 17.34 C 115.714 17.206 116.09 17.14 116.44 17.14 L 123.436 17.14 L 123.436 20.288 L 116.462 20.288 C 116.317 20.288 116.201 20.306 116.117 20.342 C 116.034 20.379 115.972 20.427 115.931 20.488 C 115.891 20.548 115.868 20.613 115.861 20.682 C 115.853 20.75 115.849 20.817 115.849 20.881 C 115.857 21.01 115.879 21.111 115.915 21.184 C 115.952 21.256 115.997 21.309 116.052 21.342 C 116.107 21.374 116.169 21.392 116.238 21.396 C 116.308 21.4 116.375 21.402 116.44 21.402 L 120.853 21.402 C 121.582 21.402 122.203 21.547 122.714 21.838 C 123.225 22.129 123.637 22.494 123.951 22.934 C 124.265 23.374 124.493 23.852 124.635 24.368 C 124.777 24.885 124.849 25.365 124.849 25.809 Z M 140 21.547 L 140 30.229 L 137.154 30.229 L 137.154 21.547 C 137.154 21.136 137.059 20.823 136.869 20.609 C 136.679 20.395 136.395 20.288 136.015 20.288 L 130.881 20.288 L 130.881 17.14 L 136.015 17.14 C 136.285 17.14 136.57 17.174 136.869 17.243 C 137.168 17.311 137.466 17.418 137.761 17.563 C 138.057 17.709 138.34 17.896 138.61 18.126 C 138.88 18.356 139.117 18.635 139.321 18.962 C 139.526 19.289 139.69 19.667 139.814 20.094 C 139.938 20.522 140 21.006 140 21.547 Z M 129.731 11.606 L 129.731 30.229 L 126.885 30.229 L 126.885 11.606 L 129.731 11.606 Z" style="" transform="matrix(1, 0, 0, 1, -3.552713678800501e-15, 0)"/>
</svg>