<svg width="78" height="25" viewBox="0 0 78 25" fill="none" xmlns="http://www.w3.org/2000/svg"><path d="M50.342 0c-5.439 0-10.3 2.84-10.3 8.086 0 6.017 8.621 6.432 8.621 9.455 0 1.273-1.448 2.412-3.921 2.412-3.51 0-6.133-1.592-6.133-1.592l-1.123 5.294S40.508 25 44.522 25c5.946 0 10.625-2.98 10.625-8.315 0-6.358-8.656-6.761-8.656-9.567 0-.997 1.189-2.09 3.655-2.09 2.782 0 5.052 1.159 5.052 1.159l1.099-5.114S53.826 0 50.342 0ZM.58.386l-.131.772s2.288.422 4.349 1.263c2.653.965 2.842 1.527 3.29 3.271l4.87 18.91h6.527L29.543.386h-6.514L16.567 16.85 13.93 2.893C13.688 1.297 12.463.386 10.964.386H.58Zm31.582 0-5.11 24.216h6.211L38.355.386h-6.193Zm34.64 0c-1.498 0-2.291.808-2.874 2.219L54.83 24.602h6.513l1.26-3.666h7.935l.767 3.666h5.746L72.037.386h-5.235Zm.847 6.542 1.93 9.087h-5.172l3.242-9.087Z" fill="#1434CB"/></svg>